<?xml version="1.0" standalone="no"?>
<!DOCTYPE svg PUBLIC "-//W3C//DTD SVG 1.1//EN" "http://www.w3.org/Graphics/SVG/1.1/DTD/svg11.dtd" >
<svg xmlns="http://www.w3.org/2000/svg">
<metadata>
This is a custom SVG webfont generated by Font Squirrel.
Copyright   : Copyright c 1999 by Ethan Dunham  Fonthead Design All rights reserved
Designer    : Ethan Dunham
Foundry     : Ethan Dunham  Fonthead Design
Foundry URL : httpwwwfontheadcom
</metadata>
<defs>
<font id="webfontPlZNibfx" horiz-adv-x="1124" >
<font-face units-per-em="2048" ascent="1638" descent="-410" />
<missing-glyph horiz-adv-x="563" />
<glyph unicode=" "  horiz-adv-x="563" />
<glyph unicode="&#x09;" horiz-adv-x="563" />
<glyph unicode="&#xa0;" horiz-adv-x="563" />
<glyph unicode="!" horiz-adv-x="481" d="M0 0v160h322v-160h-322zM0 322v800h322v-800h-322z" />
<glyph unicode="&#x22;" horiz-adv-x="641" d="M0 803v319h160v-319h-160zM322 803v319h159v-319h-159z" />
<glyph unicode="#" horiz-adv-x="1204" d="M0 322v159h160v160h-160v162h160v319h321v-319h160v319h322v-319h79v-162h-79v-160h79v-159h-79v-322h-322v322h-160v-322h-321v322h-160zM481 481h160v160h-160v-160z" />
<glyph unicode="$" d="M0 160v162h641v159h-641v482h322v159h319v-159h322v-160h-641v-162h641v-481h-322v-160h-319v160h-322z" />
<glyph unicode="%" d="M0 481v160h963v-160h-963zM0 723v399h481v-399h-481zM201 883h80v80h-80v-80zM481 0v401h482v-401h-482zM682 160h80v80h-80v-80z" />
<glyph unicode="&#x26;" horiz-adv-x="1204" d="M0 0v1122h963v-159h-641v-322h720v-160h-79v-481h-963zM322 160h319v321h-319v-321z" />
<glyph unicode="'" horiz-adv-x="641" d="M0 803v319h160v-319h-160zM322 803v319h159v-319h-159z" />
<glyph unicode="(" horiz-adv-x="561" d="M0 0v1122h401v-159h-79v-803h79v-160h-401z" />
<glyph unicode=")" horiz-adv-x="561" d="M0 0v160h80v803h-80v159h401v-1122h-401z" />
<glyph unicode="*" d="M0 266v185l322 186l-322 184v187l401 -232v338h160v-338l402 232v-187l-320 -184l320 -186v-185l-402 232v-338h-160v338z" />
<glyph unicode="+" horiz-adv-x="561" d="M0 481v160h121v121h160v-121h120v-160h-120v-121h-160v121h-121z" />
<glyph unicode="," horiz-adv-x="665" d="M0 -322l166 482h338l-164 -482h-340z" />
<glyph unicode="-" horiz-adv-x="641" d="M0 481v160h481v-160h-481z" />
<glyph unicode="." horiz-adv-x="481" d="M0 0v160h322v-160h-322z" />
<glyph unicode="/" horiz-adv-x="804" d="M0 0l311 1122h334l-311 -1122h-334z" />
<glyph unicode="0" d="M0 0v1122h963v-1122h-963zM322 160h319v803h-319v-803z" />
<glyph unicode="1" horiz-adv-x="641" d="M0 0v160h80v803h-80v159h401v-962h80v-160h-481z" />
<glyph unicode="2" d="M0 0v481h641v482h-319v-160h-322v319h963v-800h-641v-162h641v-160h-963z" />
<glyph unicode="3" d="M0 0v160h641v321h-319v160h319v322h-641v159h963v-1122h-963z" />
<glyph unicode="4" d="M0 322v641h322v-482h319v641h322v-1122h-322v322h-641z" />
<glyph unicode="5" d="M0 0v322h322v-162h319v481h-641v481h963v-159h-641v-160h641v-803h-963z" />
<glyph unicode="6" d="M0 0v1122h963v-159h-641v-160h641v-803h-963zM322 160h319v481h-319v-481z" />
<glyph unicode="7" d="M0 803v319h963v-1122h-322v963h-319v-160h-322z" />
<glyph unicode="8" d="M0 0v803l150 82l-150 78v159h963v-159l-160 -78l160 -82v-803h-963zM322 160h319v481h-319v-481zM322 803h319v160h-319v-160z" />
<glyph unicode="9" d="M0 0v160h641v162h-641v800h963v-1122h-963zM322 481h319v482h-319v-482z" />
<glyph unicode=":" horiz-adv-x="481" d="M0 0v160h322v-160h-322zM0 481v160h322v-160h-322z" />
<glyph unicode=";" horiz-adv-x="665" d="M0 -322l166 482h338l-164 -482h-340zM182 481v160h322v-160h-322z" />
<glyph unicode="&#x3c;" horiz-adv-x="561" d="M0 305v193l401 176v-176l-221 -97l221 -98v-174z" />
<glyph unicode="=" horiz-adv-x="561" d="M0 322v159h401v-159h-401zM0 641v162h401v-162h-401z" />
<glyph unicode="&#x3e;" horiz-adv-x="561" d="M0 129v174l219 98l-219 97v176l401 -176v-193z" />
<glyph unicode="?" d="M0 803v319h963v-641h-322v-159h-319v319h319v322h-319v-160h-322zM322 0v160h319v-160h-319z" />
<glyph unicode="@" horiz-adv-x="1443" d="M0 0v1122h1284v-800h-801v641h-161v-803h962v-160h-1284zM805 481h158v482h-158v-482z" />
<glyph unicode="A" horiz-adv-x="1204" d="M0 963v159h1042v-1122h-319v481h-322v-481h-321v963h-80zM401 641h322v322h-322v-322z" />
<glyph unicode="B" horiz-adv-x="1204" d="M0 0v160h80v803h-80v159h1042v-481l-319 -80l319 -80v-481h-1042zM401 160h322v321h-322v-321zM401 641h322v322h-322v-322z" />
<glyph unicode="C" d="M0 0v1122h963v-319h-322v160h-319v-803h319v162h322v-322h-963z" />
<glyph unicode="D" horiz-adv-x="1204" d="M0 0v160h80v803h-80v159h883l159 -159v-803l-159 -160h-883zM401 160h322v803h-322v-803z" />
<glyph unicode="E" horiz-adv-x="1204" d="M0 0v160h80v803h-80v159h1042v-319h-319v160h-322v-322h482v-160h-482v-321h322v162h319v-322h-1042z" />
<glyph unicode="F" horiz-adv-x="1204" d="M0 0v160h80v803h-80v159h1042v-319h-319v160h-322v-322h482v-160h-482v-481h-401z" />
<glyph unicode="G" d="M0 0v1122h963v-319h-322v160h-319v-803h319v321h-80v160h402v-963h-322v322h-641z" />
<glyph unicode="H" horiz-adv-x="1284" d="M0 0v160h80v803h-80v159h401v-481h322v481h401v-159h-82v-803h82v-160h-401v481h-322v-481h-401z" />
<glyph unicode="I" horiz-adv-x="802" d="M0 0v160h160v803h-160v159h641v-159h-160v-803h160v-160h-641z" />
<glyph unicode="J" d="M0 0v481h322v-321h319v803h-80v159h402v-1122h-963z" />
<glyph unicode="K" d="M0 0v1122h322v-481h159v481h402v-159h-80v-322h160v-641h-322v481h-319v-481h-322z" />
<glyph unicode="L" horiz-adv-x="1204" d="M0 963v159h401v-962h322v162h319v-322h-962v963h-80z" />
<glyph unicode="M" horiz-adv-x="1523" d="M0 963v159h1364v-1122h-322v963h-159v-641h-322v641h-160v-963h-321v963h-80z" />
<glyph unicode="N" horiz-adv-x="1204" d="M0 963v159h1042v-1122h-319v963h-322v-963h-321v963h-80z" />
<glyph unicode="O" d="M0 0v1122h963v-1122h-963zM322 160h319v803h-319v-803z" />
<glyph unicode="P" d="M0 -322v1444h963v-1122h-641v-322h-322zM322 160h319v803h-319v-803z" />
<glyph unicode="Q" d="M0 0v1122h963v-1122h-322v-322h-319v322h-322zM322 160h319v803h-319v-803z" />
<glyph unicode="R" d="M0 0v1122h963v-641h-160v-321h80v-160h-402v481h-159v-481h-322zM322 641h319v322h-319v-322z" />
<glyph unicode="S" d="M0 0v322h322v-162h319v321h-641v641h963v-319h-322v160h-319v-322h641v-641h-963z" />
<glyph unicode="T" d="M0 963v159h963v-159h-322v-963h-319v963h-322z" />
<glyph unicode="U" d="M0 0v1122h322v-962h319v962h322v-1122h-963z" />
<glyph unicode="V" horiz-adv-x="1204" d="M0 205v917h322v-852l319 -104v956h401v-159h-79v-963h-328z" />
<glyph unicode="W" horiz-adv-x="1605" d="M0 963v159h401v-901l160 -53v954h322v-962h159v962h402v-159h-80v-963h-801h-2l-481 160v803h-80z" />
<glyph unicode="X" d="M0 0v481l322 80l-322 80v481h322v-481h319v481h322v-481l-322 -80l322 -80v-481h-322v481h-319v-481h-322z" />
<glyph unicode="Y" d="M0 0v1122h322v-962h319v962h322v-1444h-963v162h641v160h-641z" />
<glyph unicode="Z" d="M0 0v160l569 803h-569v159h963v-159l-568 -803h568v-160h-963z" />
<glyph unicode="[" horiz-adv-x="802" d="M0 0v1122h641v-159h-319v-803h319v-160h-641z" />
<glyph unicode="\" horiz-adv-x="804" d="M0 1122h334l311 -1122h-334z" />
<glyph unicode="]" horiz-adv-x="802" d="M0 0v160h322v803h-322v159h641v-1122h-641z" />
<glyph unicode="^" horiz-adv-x="802" d="M0 1284l322 322l321 -322h-227l-94 94l-95 -94h-227z" />
<glyph unicode="_" d="M0 0h963v-160h-963v160z" />
<glyph unicode="`" horiz-adv-x="708" d="M0 1606h227l322 -322h-227z" />
<glyph unicode="a" d="M0 0v481h641v160h-641v162h963v-803h-963zM322 160h319v162h-319v-162z" />
<glyph unicode="b" d="M0 0v1122h322v-319h641v-803h-963zM322 160h319v481h-319v-481z" />
<glyph unicode="c" d="M0 0v803h963v-322h-322v160h-319v-481h319v162h322v-322h-963z" />
<glyph unicode="d" d="M0 0v803h641v319h322v-1122h-963zM322 160h319v481h-319v-481z" />
<glyph unicode="e" d="M0 0v803h963v-481h-641v-162h641v-160h-963zM322 481h319v160h-319v-160z" />
<glyph unicode="f" horiz-adv-x="962" d="M0 -160h80v1282h723v-159h-402v-322h402v-160h-402v-803h-401v162z" />
<glyph unicode="g" d="M0 0v803h963v-1125h-963v162h641v160h-641zM322 160h319v481h-319v-481z" />
<glyph unicode="h" d="M0 0v1122h322v-319h641v-803h-322v641h-319v-641h-322z" />
<glyph unicode="i" horiz-adv-x="561" d="M0 0v803h401v-162h-79v-481h79v-160h-401zM0 963v159h401v-159h-401z" />
<glyph unicode="j" horiz-adv-x="641" d="M0 -160h80v963h401v-162h-80v-963h-401v162zM80 963v159h401v-159h-401z" />
<glyph unicode="k" d="M0 0v1122h322v-641h159v322h402v-162h-80v-160h160v-481h-322v322h-319v-322h-322z" />
<glyph unicode="l" horiz-adv-x="641" d="M0 963v159h401v-962h80v-160h-401v963h-80z" />
<glyph unicode="m" horiz-adv-x="1443" d="M0 0v803h1284v-803h-321v641h-160v-641h-322v641h-159v-641h-322z" />
<glyph unicode="n" d="M0 0v803h963v-803h-322v641h-319v-641h-322z" />
<glyph unicode="o" d="M0 0v803h963v-803h-963zM322 160h319v481h-319v-481z" />
<glyph unicode="p" d="M0 -322v1125h963v-803h-641v-322h-322zM322 160h319v481h-319v-481z" />
<glyph unicode="q" horiz-adv-x="1204" d="M0 0v803h963v-963h79v-162h-401v322h-641zM322 160h319v481h-319v-481z" />
<glyph unicode="r" d="M0 0v803h963v-322h-322v160h-319v-641h-322z" />
<glyph unicode="s" d="M0 0v160h641v162h-641v481h963v-162h-641v-160h641v-481h-963z" />
<glyph unicode="t" horiz-adv-x="962" d="M0 481v160h160v481h321v-481h322v-160h-322v-481h-321v481h-160z" />
<glyph unicode="u" d="M0 0v803h322v-643h319v643h322v-803h-963z" />
<glyph unicode="v" d="M0 322v481h322v-463l319 -160v623h322v-803h-322z" />
<glyph unicode="w" horiz-adv-x="1443" d="M0 0v803h322v-643h159v481h322v-481h160v643h321v-803h-1284z" />
<glyph unicode="x" d="M0 0v322l322 79l-322 80v322h322v-322h319v322h322v-322l-322 -80l322 -79v-322h-322v322h-319v-322h-322z" />
<glyph unicode="y" d="M0 0v803h322v-643h319v643h322v-1125h-963v162h641v160h-641z" />
<glyph unicode="z" d="M0 0v160l500 481h-500v162h963v-162l-500 -481h500v-160h-963z" />
<glyph unicode="{" horiz-adv-x="722" d="M0 481v160h238l-158 162v319h481v-159h-160v-803h160v-160h-481v322l158 159h-238z" />
<glyph unicode="|" horiz-adv-x="481" d="M0 -322v1444h322v-1444h-322z" />
<glyph unicode="}" horiz-adv-x="722" d="M0 0v160h160v803h-160v159h481v-319l-155 -162h235v-160h-235l155 -159v-322h-481z" />
<glyph unicode="~" horiz-adv-x="800" d="M0 1284l145 322h174l78 -154l68 154h174l2 -2l-145 -320h-195l-65 131l-60 -131h-176z" />
<glyph unicode="&#xa2;" d="M0 319v322v162h322v319h319v-319h322v-162h-641v-160h641v-162h-322v-319h-319v319h-322z" />
<glyph unicode="&#xa3;" d="M0 0v160h322v321h-322v160h322v481h641v-159h-322v-322h162v-160h-162v-321h322v-160h-963z" />
<glyph unicode="&#xa5;" d="M0 553v569h322v-409h319v409h322v-553h-314v-75h160v-115h-160v-115h160v-112h-160v-152h-321v152h-176v112h176v115h-176v115h176v59h-328z" />
<glyph unicode="&#xa9;" horiz-adv-x="1443" d="M0 0v1122h1284v-1122h-1284zM322 160h641v803h-641v-803zM440 360v402h402v-160h-160v80h-80v-242h80v82h160v-162h-402z" />
<glyph unicode="&#xad;" horiz-adv-x="641" d="M0 481v160h481v-160h-481z" />
<glyph unicode="&#xae;" horiz-adv-x="1443" d="M0 0v1122h1284v-1122h-1284zM322 160h641v803h-641v-803zM440 360v402h402v-242h-80v-80h80v-80h-160v160h-80v-160h-162zM602 602h80v80h-80v-80z" />
<glyph unicode="&#xb4;" horiz-adv-x="708" d="M0 1284l322 322h227l-322 -322h-227z" />
<glyph unicode="&#x2000;" horiz-adv-x="802" />
<glyph unicode="&#x2001;" horiz-adv-x="1605" />
<glyph unicode="&#x2002;" horiz-adv-x="802" />
<glyph unicode="&#x2003;" horiz-adv-x="1605" />
<glyph unicode="&#x2004;" horiz-adv-x="534" />
<glyph unicode="&#x2005;" horiz-adv-x="401" />
<glyph unicode="&#x2006;" horiz-adv-x="266" />
<glyph unicode="&#x2007;" horiz-adv-x="266" />
<glyph unicode="&#x2008;" horiz-adv-x="200" />
<glyph unicode="&#x2009;" horiz-adv-x="319" />
<glyph unicode="&#x200a;" horiz-adv-x="88" />
<glyph unicode="&#x2010;" horiz-adv-x="641" d="M0 481v160h481v-160h-481z" />
<glyph unicode="&#x2011;" horiz-adv-x="641" d="M0 481v160h481v-160h-481z" />
<glyph unicode="&#x2012;" horiz-adv-x="641" d="M0 481v160h481v-160h-481z" />
<glyph unicode="&#x2013;" horiz-adv-x="802" d="M0 481v160h641v-160h-641z" />
<glyph unicode="&#x2014;" d="M0 481v160h963v-160h-963z" />
<glyph unicode="&#x2018;" horiz-adv-x="477" d="M0 1122h176l141 -319h-176z" />
<glyph unicode="&#x2019;" horiz-adv-x="477" d="M0 803l141 319h176l-141 -319h-176z" />
<glyph unicode="&#x201c;" horiz-adv-x="796" d="M0 1122h176l141 -319h-176zM319 1122h177l141 -319h-176z" />
<glyph unicode="&#x201d;" horiz-adv-x="796" d="M0 803l141 319h176l-141 -319h-176zM319 803l142 319h176l-141 -319h-177z" />
<glyph unicode="&#x2022;" horiz-adv-x="802" d="M0 322v319h641v-319h-641z" />
<glyph unicode="&#x2026;" horiz-adv-x="1443" d="M963 0v160h322v-160h-322zM481 0v160h322v-160h-322zM0 0v160h322v-160h-322z" />
<glyph unicode="&#x202f;" horiz-adv-x="319" />
<glyph unicode="&#x205f;" horiz-adv-x="401" />
<glyph unicode="&#x20ac;" horiz-adv-x="1275" d="M0 322v159h152v160h-152v162h152v319h962v-319h-321v160h-320v-160h160v-162h-160v-160h160v-159h-160v-162h320v162h321v-322h-962v322h-152z" />
<glyph unicode="&#x2122;" horiz-adv-x="2166" d="M0 963v159h641v-159h-160v-322h-321v322h-160zM723 641v481h1282v-481h-319v322h-162v-322h-320v322h-162v-322h-319z" />
<glyph unicode="&#xe000;" horiz-adv-x="805" d="M0 805h805v-805h-805v805z" />
<glyph unicode="&#xfb01;" horiz-adv-x="1523" d="M963 0v803h401v-162h-79v-481h79v-160h-401zM963 963v159h401v-159h-401zM0 -160h80v1282h723v-159h-402v-322h402v-160h-402v-803h-401v162z" />
<glyph unicode="&#xfb02;" horiz-adv-x="1603" d="M963 963v159h401v-962h80v-160h-401v963h-80zM0 -160h80v1282h723v-159h-402v-322h402v-160h-402v-803h-401v162z" />
<glyph unicode="&#xfb03;" horiz-adv-x="2486" d="M1925 0v803h401v-162h-79v-481h79v-160h-401zM1925 963v159h401v-159h-401zM963 -160h80v1282h723v-159h-402v-322h402v-160h-402v-803h-401v162zM0 -160h80v1282h723v-159h-402v-322h402v-160h-402v-803h-401v162z" />
<glyph unicode="&#xfb04;" horiz-adv-x="2566" d="M1925 963v159h401v-962h80v-160h-401v963h-80zM963 -160h80v1282h723v-159h-402v-322h402v-160h-402v-803h-401v162zM0 -160h80v1282h723v-159h-402v-322h402v-160h-402v-803h-401v162z" />
</font>
</defs>
</svg>
